<?xml version="1.0" encoding="utf-8"?>
<!-- Generator: Adobe Illustrator 16.0.0, SVG Export Plug-In . SVG Version: 6.00 Build 0)  -->
<!DOCTYPE svg PUBLIC "-//W3C//DTD SVG 1.1//EN" "http://www.w3.org/Graphics/SVG/1.1/DTD/svg11.dtd">
<svg version="1.1" id="cc" xmlns="http://www.w3.org/2000/svg" xmlns:xlink="http://www.w3.org/1999/xlink" x="0px" y="0px"
	 width="587px" height="167px" viewBox="0 0 587 167" enable-background="new 0 0 587 167" xml:space="preserve">
<g>
	<path fill="#9D7F1B" d="M139.714,67.224V16.543h12.32v41.021h38.988v9.66H139.714z"/>
	<path fill="#9D7F1B" d="M262.076,41.814c0,7.514-2.918,13.697-8.75,18.55c-3.222,2.66-7.014,4.714-11.375,6.16
		c-4.364,1.446-9.159,2.17-14.387,2.17c-5.18,0-9.964-0.724-14.35-2.17c-4.387-1.446-8.167-3.5-11.34-6.16
		c-2.896-2.38-5.064-5.133-6.512-8.26c-1.445-3.126-2.17-6.556-2.17-10.29c0-3.686,0.735-7.081,2.205-10.186
		c1.472-3.103,3.651-5.845,6.545-8.225c3.222-2.66,7.035-4.725,11.445-6.195s9.158-2.205,14.245-2.205
		c5.086,0,9.835,0.735,14.245,2.205c4.41,1.471,8.225,3.535,11.444,6.195C259.158,28.258,262.076,34.394,262.076,41.814z
		 M249.405,41.814c0-2.521-0.514-4.818-1.54-6.896c-1.025-2.075-2.483-3.86-4.374-5.354c-1.891-1.493-4.178-2.66-6.859-3.5
		c-2.686-0.84-5.683-1.26-8.995-1.26c-3.314,0-6.313,0.42-8.995,1.26c-2.684,0.84-4.97,2.007-6.859,3.5
		c-1.891,1.494-3.35,3.279-4.375,5.354c-1.026,2.077-1.54,4.375-1.54,6.896c0,2.567,0.501,4.9,1.506,7
		c1.003,2.1,2.448,3.896,4.34,5.39c1.89,1.494,4.165,2.649,6.825,3.465c2.658,0.817,5.67,1.226,9.028,1.226
		c3.36,0,6.381-0.408,9.065-1.226c2.683-0.815,4.97-1.971,6.859-3.465c1.891-1.493,3.349-3.29,4.375-5.39
		C248.891,46.714,249.405,44.381,249.405,41.814z"/>
	<path fill="#9D7F1B" d="M319.055,18.399c3.779,1.237,7,2.987,9.66,5.25c2.66,2.264,4.7,4.994,6.125,8.19
		c1.422,3.196,2.135,6.731,2.135,10.604c0,7.467-3.01,13.58-9.031,18.34c-2.565,2.055-5.563,3.641-8.994,4.76
		c-3.43,1.12-7.082,1.681-10.955,1.681h-35.699V16.543h34.02C311.027,16.543,315.273,17.163,319.055,18.399z M314.818,55.806
		c2.451-1.171,4.469-2.765,6.058-4.782c2.1-2.671,3.147-5.601,3.147-8.789c0-2.297-0.42-4.43-1.26-6.398
		c-0.84-1.968-2.006-3.667-3.5-5.097c-1.494-1.43-3.279-2.543-5.354-3.341c-2.078-0.796-4.354-1.195-6.826-1.195h-22.469v31.36
		h22.54C309.814,57.564,312.368,56.979,314.818,55.806z"/>
	<path fill="#9D7F1B" d="M397.174,67.224v-21.77h-36.609v21.771h-12.32v-50.61h12.32v18.48h36.609v-18.48h12.319v50.61
		L397.174,67.224L397.174,67.224z"/>
	<path fill="#9D7F1B" d="M473.823,67.224l-5.811-10.92h-32.48l-5.809,10.92h-12.461l26.951-50.681h15.188l26.879,50.681H473.823z
		 M451.704,25.854l-11.131,20.79h22.261L451.704,25.854z"/>
</g>
<g>
	<rect x="13.082" y="127.859" fill="#6D6E71" width="78.735" height="12.586"/>
	<rect x="13.082" y="16.539" fill="#6D6E71" width="78.735" height="12.576"/>
	<rect x="13.082" y="44.425" fill="#6D6E71" width="78.735" height="12.596"/>
	<rect x="13.082" y="72.352" fill="#6D6E71" width="78.735" height="12.429"/>
	<rect x="13.082" y="100.089" fill="#6D6E71" width="78.735" height="12.611"/>
</g>
<g>
	<path fill="#6D6E71" d="M201.454,139.924v-46.27h-0.281l-28.07,36.12l-28.139-36.12h-0.211v46.27h-4.549v-50.68h7.067l25.83,33.809
		l25.9-33.809h7v50.68H201.454z"/>
	<path fill="#6D6E71" d="M222.243,139.924v-50.68h47.25v4.41h-42.701v17.22h29.68v4.41h-29.68v20.229h44.66v4.41H222.243z"/>
	<path fill="#6D6E71" d="M330.25,139.924l-15.892-20.791h-27.647v20.791h-4.551v-50.68h38.22c2.332,0,4.444,0.35,6.334,1.05
		c1.891,0.7,3.5,1.715,4.83,3.045c1.329,1.33,2.346,2.929,3.045,4.795c0.7,1.867,1.051,3.944,1.051,6.23
		c0,4.387-1.308,7.852-3.92,10.396c-2.615,2.544-6.396,4.002-11.34,4.375l15.399,20.791L330.25,139.924L330.25,139.924z
		 M327.836,111.958c1.842-1.843,2.764-4.445,2.764-7.805c0-7-4.084-10.5-12.25-10.5h-31.638v21.069h33.319
		C323.391,114.723,325.991,113.802,327.836,111.958z"/>
	<path fill="#6D6E71" d="M348.87,139.924v-50.68h4.55v50.68H348.87z"/>
	<path fill="#6D6E71" d="M411.379,91.063c3.313,1.215,6.125,2.94,8.436,5.181c2.309,2.239,4.082,4.959,5.32,8.154
		c1.233,3.197,1.854,6.779,1.854,10.745c0,3.5-0.604,6.755-1.817,9.765c-1.216,3.01-3.013,5.682-5.392,8.016
		c-2.334,2.287-5.028,4.025-8.086,5.215c-3.057,1.19-6.334,1.785-9.834,1.785h-31.85v-50.68h30.17
		C404.331,89.244,408.064,89.85,411.379,91.063z M416.35,129.424c1.725-1.914,3.055-4.105,3.99-6.58
		c0.932-2.473,1.397-5.111,1.397-7.911c0-3.173-0.502-6.065-1.504-8.68c-1.004-2.613-2.416-4.854-4.236-6.72
		c-1.817-1.866-4.014-3.313-6.577-4.341c-2.568-1.025-5.414-1.539-8.541-1.539h-26.32v41.861h27.65
		C407.855,135.514,412.568,133.482,416.35,129.424z"/>
	<path fill="#6D6E71" d="M439.238,139.924v-50.68h4.551v50.68H439.238z"/>
	<path fill="#6D6E71" d="M506.646,139.924l-6.93-13.16h-35.699l-7.07,13.16h-5.25l26.812-50.68h6.719l26.67,50.68H506.646z
		 M482.217,93.654h-0.629l-15.261,28.7h31.078L482.217,93.654z"/>
	<path fill="#6D6E71" d="M567.477,139.924l-42.771-46.27v46.27h-4.549v-50.68h6.58l42.629,46.27v-46.27h4.552v50.68H567.477
		L567.477,139.924z"/>
</g>
</svg>
