<?xml version="1.0" encoding="utf-8"?>
<!-- Generator: Adobe Illustrator 16.0.0, SVG Export Plug-In . SVG Version: 6.00 Build 0)  -->
<!DOCTYPE svg PUBLIC "-//W3C//DTD SVG 1.1//EN" "http://www.w3.org/Graphics/SVG/1.1/DTD/svg11.dtd">
<svg version="1.1" id="cc" xmlns="http://www.w3.org/2000/svg" xmlns:xlink="http://www.w3.org/1999/xlink" x="0px" y="0px"
	 width="527.646px" height="234.911px" viewBox="0 0 527.646 234.911" enable-background="new 0 0 527.646 234.911"
	 xml:space="preserve">
<g>
	<path fill="#9D7F1B" d="M134.82,93.147v-50.68h12.32v41.021h38.989v9.66L134.82,93.147L134.82,93.147z"/>
	<path fill="#9D7F1B" d="M257.182,67.737c0,7.514-2.918,13.697-8.75,18.55c-3.221,2.66-7.013,4.714-11.375,6.16
		c-4.364,1.446-9.159,2.17-14.386,2.17c-5.18,0-9.964-0.724-14.351-2.17c-4.387-1.446-8.167-3.5-11.34-6.16
		c-2.895-2.38-5.063-5.133-6.511-8.26c-1.446-3.126-2.17-6.556-2.17-10.29c0-3.686,0.735-7.081,2.205-10.186
		c1.471-3.104,3.65-5.845,6.545-8.225c3.221-2.66,7.035-4.725,11.445-6.195c4.409-1.47,9.157-2.205,14.244-2.205
		s9.836,0.735,14.245,2.205c4.41,1.471,8.226,3.535,11.445,6.195C254.264,54.182,257.182,60.317,257.182,67.737z M244.511,67.737
		c0-2.521-0.514-4.818-1.54-6.896c-1.026-2.075-2.484-3.86-4.375-5.354c-1.89-1.493-4.177-2.66-6.859-3.5
		c-2.685-0.84-5.683-1.26-8.994-1.26c-3.314,0-6.313,0.42-8.995,1.26c-2.685,0.84-4.971,2.007-6.86,3.5
		c-1.89,1.494-3.349,3.279-4.375,5.354c-1.026,2.077-1.54,4.375-1.54,6.896c0,2.567,0.501,4.9,1.506,7
		c1.003,2.1,2.449,3.896,4.34,5.39s4.165,2.649,6.825,3.465c2.659,0.817,5.67,1.226,9.029,1.226c3.36,0,6.381-0.408,9.064-1.226
		c2.684-0.815,4.971-1.971,6.859-3.465c1.891-1.493,3.349-3.29,4.375-5.39C243.997,72.637,244.511,70.305,244.511,67.737z"/>
	<path fill="#9D7F1B" d="M314.159,44.322c3.78,1.237,7,2.987,9.66,5.25c2.66,2.264,4.701,4.994,6.125,8.19
		c1.423,3.196,2.135,6.731,2.135,10.604c0,7.467-3.01,13.58-9.029,18.34c-2.566,2.055-5.564,3.641-8.994,4.76
		c-3.431,1.12-7.082,1.681-10.955,1.681h-35.7v-50.68h34.021C306.133,42.467,310.38,43.086,314.159,44.322z M309.925,81.729
		c2.45-1.171,4.469-2.765,6.056-4.782c2.1-2.671,3.149-5.601,3.149-8.789c0-2.297-0.421-4.43-1.261-6.398
		c-0.84-1.968-2.007-3.667-3.5-5.097c-1.494-1.43-3.278-2.543-5.354-3.341c-2.077-0.796-4.354-1.195-6.825-1.195h-22.47v31.36h22.54
		C304.92,83.487,307.476,82.902,309.925,81.729z"/>
	<path fill="#9D7F1B" d="M392.28,93.147v-21.77h-36.608v21.771h-12.32v-50.61h12.32v18.48h36.608v-18.48h12.32v50.61L392.28,93.147
		L392.28,93.147z"/>
	<path fill="#9D7F1B" d="M468.93,93.147l-5.811-10.92H430.64l-5.811,10.92h-12.46l26.95-50.681h15.189l26.88,50.681H468.93z
		 M446.811,51.777l-11.131,20.79h22.261L446.811,51.777z"/>
</g>
<g>
	<rect x="8.188" y="153.782" fill="#6D6E71" width="78.736" height="12.586"/>
	<rect x="8.188" y="42.462" fill="#6D6E71" width="78.736" height="12.576"/>
	<rect x="8.188" y="70.349" fill="#6D6E71" width="78.736" height="12.596"/>
	<rect x="8.188" y="98.275" fill="#6D6E71" width="78.736" height="12.429"/>
	<rect x="8.188" y="126.013" fill="#6D6E71" width="78.736" height="12.61"/>
</g>
<path fill="#6D6E71" d="M164.311,161.016l-23.141-46.349h-6.438l25.632,51.402l0.139,0.277h7.549l25.768-51.68h-6.438
	L164.311,161.016z M207.021,141.708h29.681v-5.41h-29.681v-16.221h42.701v-5.41h-48.25v51.68h50.209v-5.41h-44.66V141.708z
	 M309.55,160.156l-41.761-45.328l-0.149-0.161h-7.299v51.68h5.549v-45.493l41.902,45.332l0.147,0.16h7.16v-51.68h-5.551
	L309.55,160.156L309.55,160.156z M491.368,114.667h-7.322l-27.341,51.68h6.38l7.069-13.16h35.102l6.93,13.16h6.38L491.368,114.667z
	 M472.998,147.776l14.729-27.699l14.688,27.699H472.998z M445.278,166.347h5.549v-51.68h-5.549V166.347z M433.663,119.938
	l0.153-0.146v-5.124h-49.719v5.411h41.141l-41.701,41.149v5.119h52.17v-5.41h-44.553L433.663,119.938z M331.688,141.708h29.68v-5.41
	h-29.68v-16.221h42.701v-5.41h-48.25v51.68h50.209v-5.41h-44.66V141.708L331.688,141.708z"/>
</svg>
